HIERARCHY
ROOT reference
{
  OFFSET 0 0 0
  CHANNELS 6 Xposition Yposition Zposition Zrotation Xrotation Yrotation
  JOINT Hips
  {
    OFFSET -17.5301 92.7633 95.8209
    CHANNELS 6 Xposition Yposition Zposition Zrotation Xrotation Yrotation
    JOINT Spine
    {
      OFFSET 0 8.12958 0
      CHANNELS 6 Xposition Yposition Zposition Zrotation Xrotation Yrotation
      JOINT Spine1
      {
        OFFSET 0 26.3907 0
        CHANNELS 6 Xposition Yposition Zposition Zrotation Xrotation Yrotation
        JOINT Neck
        {
          OFFSET 0 26.2823 2.3893
          CHANNELS 6 Xposition Yposition Zposition Zrotation Xrotation Yrotation
          JOINT Head
          {
            OFFSET 0 13.8798 -1.98282
            CHANNELS 6 Xposition Yposition Zposition Zrotation Xrotation Yrotation
            End Site
            {
              OFFSET 0 24.7853 0
            }
          }
        }
        JOINT LeftShoulder
        {
          OFFSET 3.97789 23.5745 -0.27352
          CHANNELS 6 Xposition Yposition Zposition Zrotation Xrotation Yrotation
          JOINT LeftArm
          {
            OFFSET 13.7626 0 0
            CHANNELS 6 Xposition Yposition Zposition Zrotation Xrotation Yrotation
            JOINT LeftForeArm
            {
              OFFSET 26.1014 0 0
              CHANNELS 6 Xposition Yposition Zposition Zrotation Xrotation Yrotation
              JOINT LeftHand
              {
                OFFSET 29.9599 0 0
                CHANNELS 6 Xposition Yposition Zposition Zrotation Xrotation Yrotation
                End Site
                {
                  OFFSET 14.8712 0 0
                }
              }
            }
          }
        }
        JOINT RightShoulder
        {
          OFFSET -3.9517 23.5745 -0.27352
          CHANNELS 6 Xposition Yposition Zposition Zrotation Xrotation Yrotation
          JOINT RightArm
          {
            OFFSET -13.7626 0 0
            CHANNELS 6 Xposition Yposition Zposition Zrotation Xrotation Yrotation
            JOINT RightForeArm
            {
              OFFSET -26.1014 0 0
              CHANNELS 6 Xposition Yposition Zposition Zrotation Xrotation Yrotation
              JOINT RightHand
              {
                OFFSET -29.9599 0 0
                CHANNELS 6 Xposition Yposition Zposition Zrotation Xrotation Yrotation
                End Site
                {
                  OFFSET -14.8712 0 0
                }
              }
            }
          }
        }
      }
    }
    JOINT LeftUpLeg
    {
      OFFSET 9.91412 0 0
      CHANNELS 6 Xposition Yposition Zposition Zrotation Xrotation Yrotation
      JOINT LeftLeg
      {
        OFFSET 0 -41.4279 0
        CHANNELS 6 Xposition Yposition Zposition Zrotation Xrotation Yrotation
        JOINT LeftFoot
        {
          OFFSET 0 -41.0254 0
          CHANNELS 6 Xposition Yposition Zposition Zrotation Xrotation Yrotation
          JOINT LeftToeBase
          {
            OFFSET 0 -6.44418 14.8712
            CHANNELS 6 Xposition Yposition Zposition Zrotation Xrotation Yrotation
            End Site
            {
              OFFSET 0 0 3.96565
            }
          }
        }
      }
    }
    JOINT RightUpLeg
    {
      OFFSET -9.91412 0 0
      CHANNELS 6 Xposition Yposition Zposition Zrotation Xrotation Yrotation
      JOINT RightLeg
      {
        OFFSET 0 -41.4279 0
        CHANNELS 6 Xposition Yposition Zposition Zrotation Xrotation Yrotation
        JOINT RightFoot
        {
          OFFSET 0 -41.0254 0
          CHANNELS 6 Xposition Yposition Zposition Zrotation Xrotation Yrotation
          JOINT RightToeBase
          {
            OFFSET 0 -6.44418 14.8712
            CHANNELS 6 Xposition Yposition Zposition Zrotation Xrotation Yrotation
            End Site
            {
              OFFSET 0 0 3.96565
            }
          }
        }
      }
    }
  }
}
MOTION
Frames:	4
Frame Time:	0.004
0 0 0 0 0 -0 -39.3856 84.2794 -191.909 0.265975 -0.407019 3.22803 3.55271e-015 8.12958 0 -0.475121 -3.24137 -1.53034 0 26.3907 -2.84217e-014 -0.780132 -2.65218 -1.53872 7.10543e-015 26.2823 2.3893 1.23254 15.5822 -2.45798 7.10543e-015 13.8798 -1.98282 0.988758 0.396165 -2.427 3.97789 23.5745 -0.27352 13.5853 3.49523 0.83638 13.7626 2.84217e-014 0 -13.535 6.23391 2.68059 26.1014 -2.84217e-014 -2.84217e-014 1.10486 -2.80485 -1.00699 29.9599 0 0 -0.144369 -2.79288 -1.81008 -3.9517 23.5745 -0.27352 -9.12781 1.23442 1.21846 -13.7626 0 0 12.3588 8.08071 -4.75301 -26.1014 0 0 -3.74672 -3.03655 1.26453 -29.9599 5.68434e-014 0 1.44133 -2.90761 6.93524 9.91412 1.42109e-014 -2.84217e-014 -2.63111 4.02751 2.34724 -3.55271e-015 -41.4279 2.84217e-014 1.14017 -4.31375 6.39488 0 -41.0254 -2.84217e-014 2.30382 -0.442933 4.08065 7.10543e-015 -6.44418 14.8712 -1.49089e-016 -1.98785e-016 -3.18055e-015 -9.91412 -1.42109e-014 0 1.84467 2.28726 0.76954 -7.10543e-015 -41.4279 0 -0.0105887 1.78745 3.51152 -3.55271e-015 -41.0254 2.84217e-014 -2.06565 -4.48347 -13.4073 -1.42109e-014 -6.44418 14.8712 1.49089e-016 0 1.59028e-015 
0 0 0 0 0 -0 -39.3856 84.2794 -191.909 0.26671 -0.420049 3.22804 0 8.12958 0 -0.474848 -3.23118 -1.53032 7.10543e-015 26.3907 0 -0.780132 -2.65218 -1.53872 0 26.2823 2.3893 1.23254 15.5822 -2.45798 7.10543e-015 13.8798 -1.98282 0.999077 0.396165 -2.427 3.97789 23.5745 -0.27352 13.5854 3.48535 0.836372 13.7626 0 0 -13.5359 6.25182 2.68068 26.1014 0 -2.84217e-014 1.08262 -2.76327 -0.992917 29.9599 2.84217e-014 -2.84217e-014 0.225938 -2.7574 -1.77719 -3.9517 23.5745 -0.27352 -9.12781 1.23442 1.21846 -13.7626 0 0 12.3567 8.05517 -4.75271 -26.1014 0 0 -3.74705 -3.02187 1.26451 -29.9599 2.84217e-014 0 1.43662 -2.89336 6.9449 9.91412 0 -2.84217e-014 -2.63168 4.04147 2.34728 0 -41.4279 0 1.14195 -4.30925 6.42492 7.10543e-015 -41.0254 0 2.30964 -0.4581 4.05698 -3.55271e-015 -6.44418 14.8712 9.93923e-017 0 3.18055e-015 -9.91412 0 0 1.84408 2.29971 0.779921 -7.10543e-015 -41.4279 0 -0.0105887 1.78745 3.51152 0 -41.0254 0 -2.05758 -4.48322 -13.4208 0 -6.44418 14.8712 1.2424e-017 0 -1.59028e-015 
0 0 0 0 0 -0 -39.3856 84.2794 -191.909 0.267004 -0.425271 3.22804 3.55271e-015 8.12958 0 -0.474792 -3.22909 -1.53032 0 26.3907 -2.84217e-014 -0.780132 -2.65218 -1.53872 -7.10543e-015 26.2823 2.3893 1.23224 15.5822 -2.45686 7.10543e-015 13.8798 -1.98282 1.00156 0.382566 -2.4254 3.97789 23.5745 -0.27352 13.5857 3.46563 0.836354 13.7626 -2.84217e-014 0 -13.5371 6.2781 2.68082 26.1014 -2.84217e-014 0 1.11123 -2.81316 -1.00812 29.9599 0 -2.84217e-014 -0.114424 -2.8016 -1.80558 -3.9517 23.5745 -0.27352 -9.12781 1.23442 1.21846 -13.7626 2.84217e-014 0 12.3577 8.06725 -4.75285 -26.1014 2.84217e-014 -2.84217e-014 -3.7472 -3.01507 1.2645 -29.9599 0 0 1.466 -2.88445 6.96522 9.91412 1.42109e-014 -2.84217e-014 -2.63168 4.04145 2.34728 0 -41.4279 0 1.13895 -4.29938 6.40004 7.10543e-015 -41.0254 -2.84217e-014 2.27233 -0.458293 4.08419 3.55271e-015 -6.44418 14.8712 2.48481e-016 1.98785e-016 -3.18055e-015 -9.91412 0 0 1.84433 2.30414 0.772159 0 -41.4279 0 -0.0101304 1.78747 3.49682 3.55271e-015 -41.0254 0 -2.05369 -4.48422 -13.3996 -1.42109e-014 -6.44418 14.8712 -1.11816e-016 0 -7.95139e-016 
0 0 0 0 0 -0 -39.3856 84.2794 -191.909 0.267157 -0.427973 3.22804 3.55271e-015 8.12958 -2.84217e-014 -0.474742 -3.22721 -1.53032 -7.10543e-015 26.3907 0 -0.780132 -2.65218 -1.53872 0 26.2823 2.3893 1.22691 15.5727 -2.45599 7.10543e-015 13.8798 -1.98282 0.997489 0.39549 -2.42453 3.97789 23.5745 -0.27352 13.5809 3.47796 0.836365 13.7626 -2.84217e-014 0 -13.5363 6.28163 2.67149 26.1014 0 -2.84217e-014 1.11642 -2.8238 -1.00551 29.9599 0 0 -0.105786 -2.81238 -1.79256 -3.9517 23.5745 -0.27352 -9.12781 1.23442 1.21846 -13.7626 0 0 12.3559 8.04582 -4.7526 -26.1014 -2.84217e-014 0 -3.74745 -3.00383 1.26449 -29.9599 2.84217e-014 0 1.45754 -2.8741 6.94954 9.91412 2.84217e-014 -2.84217e-014 -2.63165 4.04078 2.34728 3.55271e-015 -41.4279 2.84217e-014 1.13821 -4.28963 6.4046 0 -41.0254 -2.84217e-014 2.29151 -0.460166 4.08025 7.10543e-015 -6.44418 14.8712 4.96962e-017 1.98785e-016 -6.36111e-015 -9.91412 1.42109e-014 0 1.84388 2.30479 0.783323 0 -41.4279 0 -0.0104026 1.78746 3.50555 0 -41.0254 0 -2.05321 -4.49361 -13.4167 0 -6.44418 14.8712 -3.72721e-017 0 -2.38542e-015 
